<svg width="24" height="24" fill="none" xmlns="http://www.w3.org/2000/svg"><path fill-rule="evenodd" clip-rule="evenodd" d="M12 24a8 8 0 100-16 8 8 0 000 16zm0-3a5 5 0 100-10 5 5 0 000 10z" fill="#FCFCFD"/><path d="M15 16a3 3 0 11-6 0 3 3 0 016 0zm1.584-8.89a.52.52 0 00.699-.206l2.923-5.43A1 1 0 0019.326 0h-3.732a1 1 0 00-.878.521L13.27 3.172a.5.5 0 000 .48l1.392 2.55a.514.514 0 00.3.244 9.936 9.936 0 011.622.664zm-9.167 0a.521.521 0 01-.7-.206l-2.923-5.43A1 1 0 014.674 0h3.732a1 1 0 01.878.521l2.575 4.72c.184.338-.068.754-.453.777a10.038 10.038 0 00-3.99 1.092z" fill="#FCFCFD"/></svg>