<svg width="24" height="24" fill="none" xmlns="http://www.w3.org/2000/svg"><path fill-rule="evenodd" clip-rule="evenodd" d="M14.147 11.216l6.977-.872A1 1 0 0022 9.352V7a1 1 0 00-1-1h-3.535A3.998 3.998 0 0114 8a3.998 3.998 0 01-3.465-2H8a6 6 0 105.953 6.758l.194-1.542zM11.5 4c.276 0 .494.227.562.495a2 2 0 003.876 0c.068-.268.286-.495.562-.495H21a3 3 0 013 3v2.352a3 3 0 01-2.628 2.976l-5.435.68A8.001 8.001 0 010 12a8 8 0 018-8h3.5z" fill="#FCFCFD"/><path fill-rule="evenodd" clip-rule="evenodd" d="M8 13a1 1 0 100-2 1 1 0 000 2zm0 2a3 3 0 100-6 3 3 0 000 6z" fill="#FCFCFD"/></svg>