<svg width="24" height="24" fill="none" xmlns="http://www.w3.org/2000/svg"><path fill-rule="evenodd" clip-rule="evenodd" d="M12 22a6 6 0 100-12 6 6 0 000 12zm0 2a8 8 0 100-16 8 8 0 000 16z" fill="#FCFCFD"/><path fill-rule="evenodd" clip-rule="evenodd" d="M12 18a2 2 0 100-4 2 2 0 000 4zm0 2a4 4 0 100-8 4 4 0 000 8z" fill="#FCFCFD"/><path d="M7.236 2a1 1 0 00-.894 1.447l2.582 5.166a7.99 7.99 0 00-1.737.996L4.553 4.342C3.555 2.347 5.006 0 7.236 0h1.528a3 3 0 012.683 1.658L12 2.764l.553-1.106A3 3 0 0115.236 0h1.528c2.23 0 3.68 2.347 2.683 4.342l-2.634 5.267a7.99 7.99 0 00-1.737-.996l2.582-5.166A1 1 0 0016.764 2h-1.528a1 1 0 00-.894.553L13.118 5l1.768 3.537a7.965 7.965 0 00-2.5-.528L9.659 2.553A1 1 0 008.764 2H7.236z" fill="#FCFCFD"/></svg>