<svg width="32" height="32" fill="none" xmlns="http://www.w3.org/2000/svg"><path d="M16 0C7.2 0 0 7.2 0 16s7.2 16 16 16 16-7.2 16-16S24.8 0 16 0zm8.133 17.333c.267 2.4 1.2 4.667 2.534 6.667-.534.667-1.2 1.333-1.867 2-2-2.533-3.2-5.467-3.467-8.667h-4V29.2c-.4 0-.933.133-1.333.133-.4 0-.933 0-1.333-.133V17.333h-4C10.4 20.533 9.2 23.467 7.2 26c-.667-.667-1.333-1.333-1.867-2 1.467-2 2.4-4.267 2.534-6.667H2.8c-.133-.4-.133-.933-.133-1.333 0-.4 0-.933.133-1.333H8C7.733 12.267 6.8 10 5.333 8c.534-.667 1.2-1.333 1.867-2 2 2.533 3.2 5.467 3.467 8.667h4V2.8c.4-.133.933-.133 1.333-.133.4 0 .933 0 1.333.133v11.867h4C21.6 11.467 22.8 8.533 24.8 6c.667.667 1.333 1.333 1.867 2-1.467 2-2.4 4.267-2.534 6.667h5.2c0 .4.134.933.134 1.333 0 .4 0 .933-.134 1.333h-5.2z" fill="#23262F"/></svg>